<svg data-v-423bf9ae="" xmlns="http://www.w3.org/2000/svg" viewBox="0 0 473 90" class="iconLeft"><!----><!----><!----><g data-v-423bf9ae="" id="e5360d59-6572-4d8a-b40d-67fce140cb60" fill="#000000" transform="matrix(9.619474411010742,0,0,9.619474411010742,119,-36.848968505859375)"><path d="M3.60 9.26L3.60 9.26L3.60 9.26Q3.09 9.71 2.38 9.75L2.38 9.75L2.38 9.75Q1.69 9.78 1.07 9.53L1.07 9.53L1.07 9.52L1.05 9.52L1.05 9.52Q0.95 9.49 0.76 9.33L0.76 9.33L0.76 9.33Q0.57 9.17 0.51 9.08L0.51 9.08L0.51 9.08Q0.41 8.95 0.33 8.78L0.33 8.78L0.33 8.78Q0.25 8.61 0.17 8.45L0.17 8.45L0.17 8.45Q0.02 8.16 0.01 7.95L0.01 7.95L0.01 7.95Q0 7.85 0.00 7.71L0.00 7.71L0.00 7.71Q0.01 7.58 0.02 7.41L0.02 7.41L0.02 7.41Q0.08 6.66 0.49 6.02L0.49 6.02L0.49 6.02Q0.53 5.97 0.62 5.89L0.62 5.89L0.62 5.89Q0.72 5.81 0.87 5.73L0.87 5.73L0.87 5.73Q1.18 5.56 1.40 5.49L1.40 5.49L1.40 5.49Q1.54 5.44 1.72 5.42L1.72 5.42L1.72 5.42Q2.13 5.37 2.56 5.42L2.56 5.42L2.56 5.42Q2.99 5.48 3.36 5.69L3.36 5.69L3.36 5.69Q3.42 5.72 3.48 5.77L3.48 5.77L3.48 5.77Q3.55 5.82 3.64 5.89L3.64 5.89L3.64 5.89Q3.81 6.02 3.83 6.15L3.83 6.15L3.83 6.15Q3.83 6.21 3.79 6.27L3.79 6.27L3.79 6.27Q3.71 6.36 3.64 6.36L3.64 6.36L3.64 6.36Q3.56 6.36 3.47 6.30L3.47 6.30L3.47 6.30Q3.37 6.23 3.32 6.19L3.32 6.19L3.32 6.19Q3.20 6.12 3.13 6.07L3.13 6.07L3.13 6.07Q3.06 6.02 3.04 6.01L3.04 6.01L3.04 6.01Q2.69 5.82 2.19 5.82L2.19 5.82L2.19 5.82Q2.08 5.82 1.94 5.83L1.94 5.83L1.94 5.83Q1.80 5.84 1.65 5.87L1.65 5.87L1.63 5.87L1.62 5.88L1.62 5.88Q0.75 6.13 0.49 7.06L0.49 7.06L0.49 7.06Q0.40 7.40 0.45 7.70L0.45 7.70L0.45 7.70Q0.51 8.00 0.59 8.31L0.59 8.31L0.59 8.31Q0.72 8.79 1.02 9.00L1.02 9.00L1.02 9.00Q1.32 9.21 1.78 9.30L1.78 9.30L1.78 9.30L1.78 9.30Q1.91 9.32 2.01 9.32L2.01 9.32L2.01 9.32Q2.12 9.32 2.22 9.30L2.22 9.30L2.22 9.30Q2.32 9.28 2.43 9.26L2.43 9.26L2.43 9.26Q2.54 9.24 2.66 9.23L2.66 9.23L2.66 9.23Q3.14 9.17 3.35 8.88L3.35 8.88L3.35 8.87L3.35 8.87Q3.50 8.64 3.47 8.22L3.47 8.22L3.47 8.22Q3.47 8.00 3.32 7.87L3.32 7.87L3.32 7.87Q3.13 7.70 2.80 7.71L2.80 7.71L2.26 7.73L2.26 7.73Q2.17 7.74 2.10 7.74L2.10 7.74L2.10 7.74Q2.03 7.75 1.98 7.75L1.98 7.75L1.98 7.75Q1.72 7.71 1.75 7.51L1.75 7.51L1.75 7.51Q1.77 7.38 1.94 7.33L1.94 7.33L1.94 7.33Q2.25 7.31 2.55 7.33L2.55 7.33L2.55 7.33Q2.84 7.35 3.16 7.33L3.16 7.33L3.45 7.31L3.45 7.31Q3.65 7.29 3.75 7.38L3.75 7.38L3.75 7.38Q3.86 7.46 3.86 7.66L3.86 7.66L3.86 7.66Q3.88 7.87 3.88 7.98L3.88 7.98L3.88 7.98Q3.88 8.16 3.89 8.36L3.89 8.36L3.89 8.36Q3.90 8.57 3.86 8.74L3.86 8.74L3.86 8.74Q3.81 9.00 3.60 9.26ZM7.29 5.58L7.29 5.58L7.29 5.58Q7.34 5.56 7.41 5.55L7.41 5.55L7.41 5.55Q7.49 5.55 7.55 5.56L7.55 5.56L7.55 5.56Q7.62 5.58 7.68 5.61L7.68 5.61L7.68 5.61Q7.74 5.65 7.77 5.69L7.77 5.69L7.77 5.69Q8.02 6.21 8.22 6.73L8.22 6.73L8.22 6.73Q8.42 7.25 8.67 7.76L8.67 7.76L8.67 7.76Q8.87 8.15 9.04 8.58L9.04 8.58L9.04 8.58Q9.20 9.00 9.42 9.43L9.42 9.43L9.43 9.46L9.44 9.47L9.44 9.47Q9.55 9.67 9.64 9.81L9.64 9.81L9.64 9.81Q9.72 9.95 9.78 10.02L9.78 10.02L9.78 10.02Q10.26 10.67 10.77 10.96L10.77 10.96L10.77 10.96Q11.28 11.25 11.91 11.21L11.91 11.21L11.91 11.20L11.92 11.20L11.92 11.20Q12.12 11.20 12.15 11.40L12.15 11.40L12.15 11.40Q12.15 11.61 11.95 11.62L11.95 11.62L11.95 11.62Q11.09 11.68 10.42 11.25L10.42 11.25L10.42 11.25Q9.94 10.94 9.60 10.48L9.60 10.48L9.60 10.48Q9.27 10.01 9.04 9.53L9.04 9.53L9.04 9.53Q8.96 9.37 8.89 9.21L8.89 9.21L8.89 9.21Q8.81 9.05 8.72 8.91L8.72 8.91L8.72 8.91Q8.64 8.78 8.54 8.70L8.54 8.70L8.54 8.70Q8.45 8.61 8.35 8.56L8.35 8.56L8.35 8.56Q8.25 8.51 8.12 8.48L8.12 8.48L8.12 8.48Q8.00 8.46 7.85 8.46L7.85 8.46L7.85 8.46Q7.72 8.46 7.55 8.48L7.55 8.48L7.55 8.48Q7.38 8.50 7.16 8.51L7.16 8.51L7.03 8.52L7.03 8.52Q6.87 8.53 6.70 8.56L6.70 8.56L6.70 8.56Q6.52 8.59 6.40 8.70L6.40 8.70L6.40 8.70Q6.35 8.74 6.31 8.81L6.31 8.81L6.31 8.81Q6.26 8.88 6.23 8.98L6.23 8.98L6.23 8.98Q6.19 9.06 6.16 9.16L6.16 9.16L6.16 9.16Q6.13 9.26 6.10 9.37L6.10 9.37L6.10 9.37Q6.07 9.43 6.02 9.61L6.02 9.61L6.02 9.61Q5.84 9.82 5.73 9.78L5.73 9.78L5.73 9.78Q5.67 9.75 5.65 9.64L5.65 9.64L5.65 9.64Q5.65 9.54 5.65 9.45L5.65 9.45L5.65 9.45Q5.65 9.36 5.69 9.26L5.69 9.26L5.69 9.26Q5.81 8.89 5.97 8.52L5.97 8.52L5.97 8.52Q6.14 8.15 6.31 7.78L6.31 7.78L6.31 7.78Q6.44 7.49 6.57 7.21L6.57 7.21L6.57 7.21Q6.70 6.92 6.82 6.62L6.82 6.62L6.82 6.62Q6.88 6.48 6.93 6.34L6.93 6.34L6.93 6.34Q6.98 6.20 7.04 6.06L7.04 6.06L7.15 5.81L7.15 5.81Q7.24 5.63 7.29 5.58ZM7.51 6.49L7.51 6.49L7.51 6.49Q7.38 6.49 7.31 6.60L7.31 6.60L7.31 6.60Q7.26 6.64 7.21 6.75L7.21 6.75L7.21 6.75Q7.15 6.84 7.11 6.96L7.11 6.96L7.11 6.96Q7.06 7.08 7.01 7.21L7.01 7.21L7.01 7.21Q6.92 7.49 6.89 7.67L6.89 7.67L6.89 7.67Q6.84 8.00 7.01 8.09L7.01 8.09L7.01 8.09Q7.05 8.12 7.10 8.12L7.10 8.12L7.10 8.12Q7.17 8.13 7.28 8.13L7.28 8.13L7.28 8.13Q7.38 8.13 7.53 8.13L7.53 8.13L7.53 8.13Q7.64 8.13 7.80 8.13L7.80 8.13L7.80 8.13Q7.96 8.12 8.07 8.09L8.07 8.09L8.16 8.06L8.19 7.96L8.19 7.96Q8.22 7.84 8.18 7.67L8.18 7.67L8.18 7.67Q8.13 7.51 8.02 7.28L8.02 7.28L8.02 7.28Q7.91 7.05 7.83 6.88L7.83 6.88L7.83 6.88Q7.75 6.71 7.70 6.60L7.70 6.60L7.70 6.60Q7.62 6.48 7.51 6.49ZM14.12 9.34L14.12 9.34L14.12 9.34Q14.20 9.40 14.20 9.50L14.20 9.50L14.20 9.50Q14.21 9.72 13.93 9.72L13.93 9.72L13.93 9.72Q13.44 9.72 12.95 9.71L12.95 9.71L12.95 9.71Q12.46 9.69 11.96 9.73L11.96 9.73L11.96 9.73Q11.57 9.75 11.49 9.52L11.49 9.52L11.49 9.52Q11.45 9.41 11.45 9.19L11.45 9.19L11.45 9.19Q11.46 9.08 11.46 8.99L11.46 8.99L11.46 8.99Q11.46 8.91 11.46 8.85L11.46 8.85L11.46 8.85Q11.47 8.70 11.48 8.53L11.48 8.53L11.48 8.53Q11.49 8.37 11.48 8.22L11.48 8.22L11.48 8.22Q11.47 7.89 11.46 7.58L11.46 7.58L11.46 7.58Q11.44 7.27 11.45 6.94L11.45 6.94L11.45 6.94Q11.46 6.78 11.46 6.63L11.46 6.63L11.46 6.63Q11.47 6.47 11.47 6.31L11.47 6.31L11.47 6.31Q11.48 6.11 11.47 5.94L11.47 5.94L11.47 5.94Q11.47 5.78 11.46 5.64L11.46 5.64L11.46 5.64Q11.44 5.46 11.63 5.42L11.63 5.42L11.63 5.42Q11.89 5.37 11.92 5.74L11.92 5.74L11.92 5.74Q11.93 5.89 11.94 6.04L11.94 6.04L11.94 6.04Q11.94 6.19 11.96 6.32L11.96 6.32L11.96 6.50L11.93 6.76L11.93 6.76Q11.92 6.87 11.90 6.98L11.90 6.98L11.90 6.98Q11.89 7.09 11.89 7.19L11.89 7.19L11.89 7.19Q11.87 7.45 11.87 7.65L11.87 7.65L11.87 7.65Q11.87 7.84 11.88 7.97L11.88 7.97L11.88 7.97Q11.89 8.13 11.90 8.31L11.90 8.31L11.90 8.31Q11.90 8.49 11.89 8.69L11.89 8.69L11.89 8.69Q11.87 8.99 11.97 9.08L11.97 9.08L11.97 9.08Q12.04 9.17 12.29 9.19L12.29 9.19L12.29 9.19Q12.41 9.21 12.53 9.21L12.53 9.21L12.53 9.21Q12.65 9.22 12.78 9.24L12.78 9.24L12.78 9.24Q12.96 9.26 13.15 9.24L13.15 9.24L13.15 9.24Q13.34 9.22 13.54 9.25L13.54 9.25L13.54 9.25Q13.66 9.26 13.83 9.27L13.83 9.27L13.83 9.27Q14.01 9.28 14.12 9.34ZM15.89 9.70L15.89 9.70L15.89 9.70Q15.67 9.67 15.67 9.44L15.67 9.44L15.67 9.44Q15.67 9.07 15.67 8.72L15.67 8.72L15.67 8.72Q15.67 8.36 15.67 7.99L15.67 7.99L15.67 7.99Q15.67 7.79 15.69 7.58L15.69 7.58L15.69 7.58Q15.70 7.43 15.70 7.30L15.70 7.30L15.70 7.30Q15.70 7.17 15.70 7.06L15.70 7.06L15.70 7.06Q15.69 6.99 15.68 6.90L15.68 6.90L15.68 6.90Q15.67 6.80 15.67 6.67L15.67 6.67L15.67 6.67Q15.67 6.60 15.67 6.51L15.67 6.51L15.67 6.51Q15.67 6.41 15.68 6.28L15.68 6.28L15.68 6.28Q15.69 6.19 15.69 6.11L15.69 6.11L15.69 6.11Q15.70 6.04 15.70 5.99L15.70 5.99L15.70 5.84L15.70 5.83L15.70 5.78L15.70 5.78Q15.67 5.61 15.70 5.54L15.70 5.54L15.70 5.54Q15.72 5.49 15.79 5.44L15.79 5.44L15.79 5.44Q16.06 5.30 16.12 5.61L16.12 5.61L16.12 5.61Q16.17 5.84 16.18 6.07L16.18 6.07L16.18 6.07Q16.19 6.29 16.17 6.51L16.17 6.51L16.17 6.51L16.17 6.51Q16.15 6.73 16.16 6.94L16.16 6.94L16.16 6.94Q16.17 7.15 16.15 7.36L16.15 7.36L16.15 7.36Q16.13 7.55 16.12 7.68L16.12 7.68L16.12 7.68Q16.11 7.82 16.10 7.92L16.10 7.92L16.10 7.92Q16.08 8.05 16.08 8.20L16.08 8.20L16.08 8.20Q16.08 8.35 16.09 8.51L16.09 8.51L16.09 8.51Q16.10 8.54 16.10 8.59L16.10 8.59L16.10 8.59Q16.10 8.63 16.10 8.70L16.10 8.70L16.10 8.70Q16.10 8.80 16.10 8.91L16.10 8.91L16.10 8.91Q16.10 9.02 16.11 9.13L16.11 9.13L16.11 9.13Q16.11 9.20 16.11 9.27L16.11 9.27L16.11 9.27Q16.11 9.33 16.11 9.40L16.11 9.40L16.11 9.40Q16.11 9.54 16.10 9.55L16.10 9.55L16.10 9.55Q16.07 9.68 15.89 9.70ZM18.42 7.99L18.42 7.99L18.42 7.99Q18.42 8.16 18.42 8.33L18.42 8.33L18.42 8.33Q18.41 8.50 18.42 8.67L18.42 8.67L18.42 8.67Q18.42 9.21 18.42 9.49L18.42 9.49L18.42 9.49Q18.42 9.61 18.31 9.67L18.31 9.67L18.31 9.67Q18.20 9.73 18.12 9.68L18.12 9.68L18.12 9.68Q18.04 9.65 18.03 9.52L18.03 9.52L18.03 9.52Q18.01 9.30 18.01 9.08L18.01 9.08L18.01 9.08Q18.00 8.87 18.00 8.64L18.00 8.64L18.00 8.64Q18.01 8.37 18.01 8.09L18.01 8.09L18.01 8.09Q18.01 7.82 18.01 7.53L18.01 7.53L18.01 7.53Q18.01 7.37 18.02 7.20L18.02 7.20L18.02 7.20Q18.02 7.03 18.01 6.87L18.01 6.87L18.01 6.87Q18.01 6.68 18.01 6.47L18.01 6.47L18.01 6.47Q18.01 6.26 18.02 6.03L18.02 6.03L18.02 6.03Q18.03 5.99 18.03 5.93L18.03 5.93L18.03 5.93Q18.03 5.87 18.03 5.78L18.03 5.78L18.03 5.78Q18.03 5.63 18.03 5.61L18.03 5.61L18.03 5.61Q18.04 5.55 18.15 5.48L18.15 5.48L18.15 5.48Q18.24 5.42 18.51 5.41L18.51 5.41L18.51 5.41Q18.65 5.40 18.75 5.40L18.75 5.40L18.75 5.40Q18.85 5.39 18.92 5.39L18.92 5.39L18.92 5.39Q19.10 5.39 19.29 5.40L19.29 5.40L19.29 5.40Q19.49 5.41 19.69 5.42L19.69 5.42L19.69 5.42Q19.80 5.43 19.93 5.44L19.93 5.44L19.93 5.44Q20.06 5.45 20.22 5.48L20.22 5.48L20.22 5.48Q20.54 5.52 20.71 5.66L20.71 5.66L20.72 5.66L20.72 5.66Q20.95 5.86 21.07 6.09L21.07 6.09L21.07 6.09Q21.19 6.32 21.18 6.61L21.18 6.61L21.18 6.61Q21.17 6.81 21.08 6.96L21.08 6.96L21.08 6.96Q20.99 7.10 20.84 7.21L20.84 7.21L20.84 7.21Q20.54 7.42 20.19 7.49L20.19 7.49L20.19 7.49Q20.22 7.48 20.10 7.51L20.10 7.51L20.10 7.51Q19.89 7.54 19.68 7.53L19.68 7.53L19.68 7.53Q19.48 7.52 19.27 7.55L19.27 7.55L19.27 7.55Q19.20 7.55 19.11 7.56L19.11 7.56L19.11 7.56Q19.02 7.56 18.89 7.55L18.89 7.55L18.89 7.55Q18.65 7.54 18.54 7.62L18.54 7.62L18.54 7.62Q18.40 7.72 18.42 7.99ZM19.49 7.12L19.55 7.12L19.55 7.12Q19.82 7.12 20.07 7.10L20.07 7.10L20.07 7.10Q20.32 7.07 20.56 6.89L20.56 6.89L20.56 6.89Q20.82 6.70 20.77 6.44L20.77 6.44L20.77 6.44Q20.71 6.18 20.48 6.02L20.48 6.02L20.48 6.02Q20.43 5.97 20.35 5.94L20.35 5.94L20.35 5.94Q20.28 5.91 20.21 5.89L20.21 5.89L20.21 5.89Q19.86 5.81 19.56 5.85L19.56 5.85L19.56 5.85Q19.41 5.87 19.25 5.88L19.25 5.88L19.25 5.88Q19.09 5.89 18.93 5.89L18.93 5.89L18.93 5.89Q18.85 5.89 18.79 5.88L18.79 5.88L18.79 5.88Q18.72 5.88 18.69 5.87L18.69 5.87L18.69 5.87Q18.65 5.86 18.61 5.87L18.61 5.87L18.61 5.87Q18.44 5.91 18.43 6.17L18.43 6.17L18.43 6.17Q18.42 6.23 18.42 6.32L18.42 6.32L18.42 6.32Q18.42 6.41 18.42 6.52L18.42 6.52L18.42 6.52Q18.42 6.56 18.42 6.61L18.42 6.61L18.42 6.61Q18.42 6.66 18.42 6.73L18.42 6.73L18.42 6.73Q18.44 6.97 18.57 7.08L18.57 7.08L18.57 7.08Q18.70 7.19 19.02 7.18L19.02 7.18L19.02 7.18Q19.14 7.17 19.25 7.16L19.25 7.16L19.25 7.16Q19.37 7.14 19.49 7.12L19.49 7.12ZM25.73 9.08L25.73 9.08L25.73 9.08Q25.61 9.23 25.51 9.34L25.51 9.34L25.51 9.34Q25.40 9.45 25.29 9.53L25.29 9.53L25.29 9.53Q25.17 9.60 25.03 9.66L25.03 9.66L25.03 9.66Q24.89 9.71 24.71 9.73L24.71 9.73L24.71 9.73Q24.62 9.74 24.53 9.74L24.53 9.74L24.53 9.74Q24.43 9.75 24.32 9.73L24.32 9.73L24.32 9.73Q24.17 9.72 24.03 9.72L24.03 9.72L24.03 9.72Q23.88 9.72 23.73 9.69L23.73 9.69L23.73 9.69Q23.41 9.61 23.19 9.46L23.19 9.46L23.19 9.46Q22.97 9.31 22.85 9.07L22.85 9.07L22.85 9.07Q22.70 8.74 23.02 8.73L23.02 8.73L23.02 8.73Q23.08 8.73 23.15 8.81L23.15 8.81L23.15 8.81Q23.22 8.89 23.26 8.93L23.26 8.93L23.26 8.93Q23.41 9.07 23.43 9.08L23.43 9.08L23.43 9.08L23.43 9.09L23.43 9.09Q23.77 9.32 24.32 9.32L24.32 9.32L24.33 9.32L24.34 9.32L24.34 9.32Q24.57 9.32 24.93 9.23L24.93 9.23L24.93 9.23Q25.29 9.14 25.40 8.87L25.40 8.87L25.40 8.87Q25.46 8.70 25.40 8.51L25.40 8.51L25.40 8.50L25.40 8.50Q25.23 8.14 24.74 8.02L24.74 8.02L23.90 7.80L23.90 7.80Q23.72 7.76 23.47 7.63L23.47 7.63L23.47 7.63Q23.34 7.56 23.24 7.51L23.24 7.51L23.24 7.51Q23.15 7.45 23.08 7.40L23.08 7.40L23.08 7.40Q22.80 7.19 22.76 6.99L22.76 6.99L22.76 6.99Q22.75 6.95 22.75 6.89L22.75 6.89L22.75 6.89Q22.75 6.83 22.75 6.74L22.75 6.74L22.75 6.74Q22.75 6.64 22.76 6.55L22.76 6.55L22.76 6.55Q22.78 6.46 22.79 6.36L22.79 6.36L22.79 6.36Q22.83 6.04 23.06 5.80L23.06 5.80L23.06 5.80Q23.16 5.69 23.31 5.62L23.31 5.62L23.31 5.62Q23.45 5.55 23.59 5.49L23.59 5.49L23.59 5.49Q23.78 5.40 23.99 5.40L23.99 5.40L23.99 5.40Q24.20 5.39 24.40 5.40L24.40 5.40L24.40 5.40Q25.07 5.42 25.45 5.87L25.45 5.87L25.45 5.87Q25.62 6.08 25.58 6.22L25.58 6.22L25.53 6.26L25.53 6.26Q25.42 6.32 25.27 6.19L25.27 6.19L25.27 6.19Q25.23 6.16 25.20 6.13L25.20 6.13L25.20 6.13Q25.16 6.09 25.13 6.06L25.13 6.06L25.13 6.06Q25.09 6.02 25.04 5.98L25.04 5.98L25.04 5.98Q24.99 5.95 24.92 5.91L24.92 5.91L24.90 5.90L24.88 5.90L24.88 5.90Q24.63 5.82 24.37 5.81L24.37 5.81L24.37 5.81Q24.10 5.80 23.82 5.86L23.82 5.86L23.82 5.86Q23.49 5.93 23.31 6.14L23.31 6.14L23.31 6.14Q23.13 6.34 23.13 6.67L23.13 6.67L23.13 6.69L23.14 6.70L23.14 6.70Q23.17 7.12 23.80 7.30L23.80 7.30L23.99 7.36L24.50 7.53L24.50 7.53Q24.62 7.57 24.73 7.62L24.73 7.62L24.73 7.62Q24.85 7.67 24.98 7.72L24.98 7.72L24.98 7.72Q25.17 7.81 25.33 7.90L25.33 7.90L25.33 7.90Q25.50 7.98 25.63 8.07L25.63 8.07L25.63 8.07Q25.73 8.13 25.78 8.22L25.78 8.22L25.78 8.22Q25.83 8.31 25.85 8.41L25.85 8.41L25.85 8.41Q25.87 8.51 25.86 8.62L25.86 8.62L25.86 8.62Q25.86 8.73 25.84 8.82L25.84 8.82L25.84 8.82Q25.83 8.89 25.80 8.96L25.80 8.96L25.80 8.96Q25.76 9.03 25.73 9.08ZM30.68 5.42L30.68 5.42L30.68 5.42Q30.88 5.41 30.88 5.63L30.88 5.63L30.88 5.63Q30.88 5.91 30.88 6.19L30.88 6.19L30.88 6.19Q30.88 6.46 30.84 6.75L30.84 6.75L30.84 6.75Q30.81 7.01 30.84 7.27L30.84 7.27L30.84 7.27Q30.87 7.53 30.87 7.79L30.87 7.79L30.87 7.84L30.84 8.31L30.84 8.31Q30.83 8.46 30.81 8.57L30.81 8.57L30.81 8.57Q30.79 8.69 30.78 8.76L30.78 8.76L30.76 8.79L30.75 8.84L30.75 8.85L30.75 8.85Q30.73 8.93 30.67 9.01L30.67 9.01L30.67 9.01Q30.62 9.10 30.55 9.18L30.55 9.18L30.55 9.18Q30.49 9.26 30.41 9.32L30.41 9.32L30.41 9.32Q30.34 9.39 30.28 9.45L30.28 9.45L30.28 9.45Q30.16 9.55 30.02 9.61L30.02 9.61L30.02 9.61Q29.89 9.67 29.74 9.70L29.74 9.70L29.74 9.70Q29.59 9.73 29.43 9.74L29.43 9.74L29.43 9.74Q29.28 9.75 29.13 9.75L29.13 9.75L29.13 9.75Q28.88 9.75 28.64 9.69L28.64 9.69L28.64 9.69Q28.40 9.63 28.18 9.50L28.18 9.50L28.18 9.50Q28.16 9.48 28.16 9.47L28.16 9.47L28.16 9.47Q28.14 9.47 28.13 9.45L28.13 9.45L28.13 9.45Q28.12 9.44 28.10 9.43L28.10 9.43L28.10 9.43Q28.08 9.41 28.07 9.40L28.07 9.40L28.07 9.40Q28.05 9.39 28.04 9.37L28.04 9.37L28.04 9.37Q27.70 9.01 27.60 8.47L27.60 8.47L27.60 8.47Q27.56 8.20 27.55 7.95L27.55 7.95L27.55 7.95Q27.54 7.69 27.55 7.44L27.55 7.44L27.55 7.44Q27.56 7.38 27.56 7.32L27.56 7.32L27.56 7.32Q27.57 7.27 27.58 7.21L27.58 7.21L27.58 7.21Q27.58 7.12 27.58 7.05L27.58 7.05L27.58 7.05Q27.58 6.97 27.57 6.90L27.57 6.90L27.57 6.90Q27.53 6.36 27.55 5.63L27.55 5.63L27.55 5.63Q27.56 5.48 27.73 5.42L27.73 5.42L27.73 5.42Q27.86 5.38 27.96 5.45L27.96 5.45L27.96 5.45Q28.01 5.50 28.01 5.57L28.01 5.57L28.01 5.57Q28.02 5.67 28.02 5.82L28.02 5.82L28.02 5.82Q28.01 5.97 28.01 6.17L28.01 6.17L28.01 6.17Q28.01 6.34 27.99 6.51L27.99 6.51L27.99 6.51Q27.98 6.68 27.98 6.84L27.98 6.84L27.98 6.84Q27.98 7.05 27.97 7.24L27.97 7.24L27.97 7.24Q27.95 7.44 27.95 7.64L27.95 7.64L27.95 7.64Q27.95 8.02 28.08 8.50L28.08 8.50L28.08 8.50Q28.09 8.56 28.11 8.61L28.11 8.61L28.11 8.61Q28.12 8.66 28.14 8.72L28.14 8.72L28.14 8.72Q28.24 9.04 28.45 9.16L28.45 9.16L28.45 9.16Q28.61 9.26 29.04 9.28L29.04 9.28L29.04 9.28Q29.09 9.29 29.15 9.30L29.15 9.30L29.15 9.30Q29.20 9.31 29.26 9.31L29.26 9.31L29.27 9.31L29.28 9.31L29.28 9.31Q29.61 9.31 29.85 9.19L29.85 9.19L29.85 9.19Q30.10 9.08 30.27 8.79L30.27 8.79L30.27 8.79Q30.41 8.56 30.41 8.08L30.41 8.08L30.41 8.08Q30.41 7.99 30.41 7.93L30.41 7.93L30.41 7.93Q30.41 7.86 30.41 7.82L30.41 7.82L30.41 7.82Q30.48 7.21 30.40 6.55L30.40 6.55L30.40 6.55Q30.39 6.46 30.42 6.22L30.42 6.22L30.42 6.22Q30.43 6.13 30.44 6.05L30.44 6.05L30.44 6.05Q30.45 5.97 30.45 5.92L30.45 5.92L30.45 5.92Q30.45 5.63 30.49 5.52L30.49 5.52L30.49 5.52Q30.54 5.42 30.68 5.42ZM36.31 5.56L36.31 5.56L36.31 5.56Q36.37 5.54 36.53 5.58L36.53 5.58L36.53 5.58Q36.69 5.62 36.72 5.68L36.72 5.68L36.72 5.68Q36.72 5.69 36.73 5.69L36.73 5.69L36.73 5.69Q36.75 5.89 36.75 6.28L36.75 6.28L36.75 6.79L36.75 6.79Q36.76 7 36.76 7.19L36.76 7.19L36.76 7.19Q36.77 7.38 36.76 7.58L36.76 7.58L36.76 7.58Q36.74 7.78 36.73 7.97L36.73 7.97L36.73 7.97Q36.72 8.16 36.73 8.35L36.73 8.35L36.73 8.35Q36.74 8.52 36.75 8.68L36.75 8.68L36.75 8.68Q36.76 8.84 36.75 9.00L36.75 9.00L36.73 9.32L36.73 9.32Q36.72 9.55 36.68 9.60L36.68 9.60L36.68 9.60Q36.61 9.71 36.51 9.71L36.51 9.71L36.51 9.71Q36.29 9.69 36.28 9.39L36.28 9.39L36.28 9.39Q36.26 8.95 36.28 8.51L36.28 8.51L36.28 8.51Q36.31 8.07 36.27 7.62L36.27 7.62L36.25 7.32L36.25 7.32Q36.24 7.10 36.07 7.08L36.07 7.08L36.07 7.08Q36.00 7.08 35.95 7.10L35.95 7.10L35.95 7.10Q35.90 7.13 35.87 7.18L35.87 7.18L35.87 7.18Q35.83 7.23 35.81 7.28L35.81 7.28L35.81 7.28Q35.79 7.34 35.77 7.39L35.77 7.39L35.77 7.39Q35.72 7.53 35.67 7.64L35.67 7.64L35.67 7.64Q35.63 7.75 35.59 7.83L35.59 7.83L35.59 7.83Q35.53 7.97 35.44 8.12L35.44 8.12L35.44 8.12Q35.36 8.26 35.28 8.40L35.28 8.40L35.28 8.40Q35.21 8.55 35.13 8.69L35.13 8.69L35.13 8.69Q35.06 8.82 34.99 8.96L34.99 8.96L34.99 8.96Q34.95 9.04 34.74 9.03L34.74 9.03L34.74 9.03Q34.60 9.03 34.53 8.95L34.53 8.95L34.53 8.95Q34.47 8.89 34.42 8.77L34.42 8.77L34.42 8.77Q34.36 8.66 34.28 8.49L34.28 8.49L34.28 8.49Q34.23 8.37 34.18 8.29L34.18 8.29L34.18 8.29Q34.14 8.20 34.10 8.15L34.10 8.15L34.10 8.15Q34.07 8.10 34.02 8.00L34.02 8.00L34.02 8.00Q33.97 7.90 33.90 7.74L33.90 7.74L33.71 7.35L33.71 7.35Q33.68 7.28 33.66 7.25L33.66 7.25L33.66 7.25Q33.63 7.21 33.63 7.20L33.63 7.20L33.63 7.20Q33.52 7.07 33.39 7.10L33.39 7.10L33.39 7.10Q33.22 7.12 33.22 7.40L33.22 7.40L33.22 7.40Q33.22 7.84 33.23 8.23L33.23 8.23L33.23 8.23Q33.24 8.61 33.25 8.96L33.25 8.96L33.25 8.96Q33.25 9.01 33.25 9.10L33.25 9.10L33.25 9.10Q33.25 9.18 33.24 9.30L33.24 9.30L33.24 9.30Q33.23 9.55 33.19 9.61L33.19 9.61L33.19 9.61Q33.12 9.71 32.98 9.70L32.98 9.70L32.98 9.70Q32.80 9.69 32.80 9.43L32.80 9.43L32.80 9.43Q32.80 9.13 32.79 8.82L32.79 8.82L32.79 8.82Q32.78 8.51 32.77 8.18L32.77 8.18L32.77 8.18Q32.76 8.03 32.77 7.90L32.77 7.90L32.77 7.90Q32.77 7.77 32.79 7.68L32.79 7.68L32.79 7.68Q32.81 7.51 32.81 7.38L32.81 7.38L32.81 7.38Q32.81 7.25 32.81 7.16L32.81 7.16L32.81 7.16Q32.80 7.05 32.79 6.93L32.79 6.93L32.79 6.93Q32.77 6.80 32.75 6.66L32.75 6.66L32.75 6.66Q32.73 6.46 32.76 6.18L32.76 6.18L32.76 6.18Q32.79 5.89 32.84 5.70L32.84 5.70L32.84 5.70Q32.86 5.62 32.88 5.58L32.88 5.58L32.88 5.58Q33.07 5.38 33.26 5.63L33.26 5.63L33.26 5.63Q33.33 5.73 33.40 5.84L33.40 5.84L33.40 5.84Q33.47 5.95 33.54 6.06L33.54 6.06L33.54 6.06Q33.65 6.22 33.74 6.41L33.74 6.41L33.74 6.41Q33.82 6.60 33.90 6.77L33.90 6.77L33.90 6.77Q33.98 6.95 34.05 7.09L34.05 7.09L34.05 7.09Q34.11 7.22 34.17 7.30L34.17 7.30L34.19 7.34L34.19 7.34Q34.27 7.46 34.32 7.58L34.32 7.58L34.32 7.58Q34.38 7.70 34.43 7.81L34.43 7.81L34.43 7.81Q34.58 8.13 34.74 8.14L34.74 8.14L34.74 8.14Q34.90 8.14 34.97 8.00L34.97 8.00L34.97 8.00Q35 7.93 35.03 7.86L35.03 7.86L35.03 7.86Q35.06 7.79 35.08 7.73L35.08 7.73L35.08 7.73Q35.13 7.62 35.19 7.49L35.19 7.49L35.19 7.49Q35.26 7.36 35.33 7.23L35.33 7.23L35.33 7.23Q35.48 6.99 35.63 6.75L35.63 6.75L35.63 6.75Q35.78 6.51 35.90 6.24L35.90 6.24L35.90 6.24Q35.94 6.16 35.99 6.06L35.99 6.06L35.99 6.06Q36.05 5.97 36.11 5.87L36.11 5.87L36.24 5.67L36.24 5.67Q36.24 5.65 36.26 5.63L36.26 5.63L36.26 5.63Q36.28 5.60 36.31 5.56Z"></path></g><defs data-v-423bf9ae=""><linearGradient data-v-423bf9ae="" gradientTransform="rotate(25)" id="48a657f9-0ae3-47a8-9d2e-a61901ba024b" x1="0%" y1="0%" x2="100%" y2="0%"><stop data-v-423bf9ae="" offset="0%" style="stop-color: rgb(0, 10, 104); stop-opacity: 1;"></stop><stop data-v-423bf9ae="" offset="100%" style="stop-color: rgb(0, 196, 238); stop-opacity: 1;"></stop></linearGradient></defs><g data-v-423bf9ae="" id="d6ea6bd5-2943-40fc-83ec-f428288bfd36" transform="matrix(1.1111111640930176,0,0,1.1111111640930176,-5.022223949432373,-3.3333356380462646)" stroke="none" fill="url(#48a657f9-0ae3-47a8-9d2e-a61901ba024b)"><path d="M4.7 84h89.1V11.1H53.3v8.1h32.4v56.699H12.8V51.601H4.7z"></path><path d="M37.1 3H4.7v16.2h8.1v-8.1h8.099v24.3H12.8v8.1H37.1v-8.1H29V11.1h8.1v8.1h8.1V3z"></path></g><!----></svg>